<svg width="512" height="512" viewBox="0 0 512 512" fill="none" xmlns="http://www.w3.org/2000/svg">
    <!-- Background Circle -->
    <circle cx="256" cy="256" r="256" fill="url(#cosmic-background)"/>
    
    <!-- Outer orbital rings -->
    <g opacity="0.6">
        <ellipse cx="256" cy="256" rx="180" ry="48" transform="rotate(-25, 256, 256)" stroke="url(#ring-gradient)" stroke-width="4" stroke-dasharray="8,8" />
        <ellipse cx="256" cy="256" rx="160" ry="40" transform="rotate(-25, 256, 256)" stroke="url(#ring-gradient2)" stroke-width="2.5" />
        <ellipse cx="256" cy="256" rx="140" ry="32" transform="rotate(-10, 256, 256)" stroke="url(#ring-gradient)" stroke-width="1.5" stroke-dasharray="4,4" />
    </g>
    
    <!-- Star field -->
    <g opacity="0.8">
        <circle cx="150" cy="120" r="2" fill="white" />
        <circle cx="380" cy="140" r="3" fill="#64f3d5" />
        <circle cx="420" cy="220" r="2" fill="white" />
        <circle cx="100" cy="300" r="2.5" fill="#4287ff" />
        <circle cx="300" cy="400" r="2" fill="white" />
        <circle cx="200" cy="380" r="1.5" fill="#64f3d5" />
        <circle cx="350" cy="320" r="2" fill="white" />
        <circle cx="180" cy="180" r="1.5" fill="#e142ff" />
        <circle cx="400" cy="380" r="2" fill="white" />
        <circle cx="280" cy="100" r="1.8" fill="#4287ff" />
    </g>
    
    <!-- Main Planet -->
    <circle cx="256" cy="256" r="100" fill="url(#planet-gradient)" />
    
    <!-- Surface details on planet -->
    <path d="M200 230C220 210 280 220 290 260C300 300 270 320 240 320C210 320 180 300 200 230Z" fill="url(#surface-detail1)" opacity="0.3" />
    <path d="M280 220C300 230 310 280 290 310C270 340 220 330 230 290C240 250 260 210 280 220Z" fill="url(#surface-detail2)" opacity="0.25" />
    
    <!-- Moon -->
    <g>
        <circle cx="370" cy="180" r="30" fill="url(#moon-gradient)" filter="drop-shadow(0 0 10px rgba(100, 243, 213, 0.3))"/>
        <circle cx="380" cy="170" r="8" fill="url(#moon-detail)" opacity="0.5"/>
    </g>
    
    <!-- Glowing spots on planet -->
    <circle cx="220" cy="220" r="25" fill="url(#glow-spot)" opacity="0.6" />
    <circle cx="280" cy="270" r="30" fill="url(#glow-spot2)" opacity="0.5" />
    
    <!-- Cosmic rays -->
    <path d="M180 170C130 120 80 140 60 120" stroke="url(#ray-gradient)" stroke-width="2" stroke-linecap="round" opacity="0.7" />
    <path d="M300 180C350 120 380 140 410 130" stroke="url(#ray-gradient2)" stroke-width="3" stroke-linecap="round" opacity="0.6" />
    
    <!-- Shooting star -->
    <path d="M400 100L380 140" stroke="url(#star-trail)" stroke-width="2" stroke-linecap="round" />
    
    <!-- Gradients -->
    <defs>
        <radialGradient id="cosmic-background" cx="0" cy="0" r="1" gradientUnits="userSpaceOnUse" gradientTransform="translate(256 256) rotate(90) scale(256)">
            <stop offset="0" stop-color="#1a2333" />
            <stop offset="0.8" stop-color="#111d27" />
            <stop offset="1" stop-color="#0a1015" />
        </radialGradient>
        
        <linearGradient id="ring-gradient" x1="0" y1="0" x2="1" y2="0">
            <stop offset="0" stop-color="#64f3d5" />
            <stop offset="1" stop-color="#4287ff" />
        </linearGradient>
        
        <linearGradient id="ring-gradient2" x1="0" y1="0" x2="1" y2="0">
            <stop offset="0" stop-color="#4287ff" />
            <stop offset="1" stop-color="#64f3d5" />
        </linearGradient>
        
        <radialGradient id="planet-gradient" cx="0.3" cy="0.3" r="0.7">
            <stop offset="0" stop-color="#4287ff" />
            <stop offset="0.7" stop-color="#2a3e60" />
            <stop offset="1" stop-color="#1a2333" />
        </radialGradient>
        
        <radialGradient id="moon-gradient" cx="0.4" cy="0.4" r="0.6">
            <stop offset="0" stop-color="#64f3d5" />
            <stop offset="0.9" stop-color="#3a9a87" />
        </radialGradient>
        
        <radialGradient id="moon-detail" cx="0.5" cy="0.5" r="0.5">
            <stop offset="0" stop-color="white" stop-opacity="0.7"/>
            <stop offset="1" stop-color="white" stop-opacity="0"/>
        </radialGradient>
        
        <radialGradient id="surface-detail1" cx="0.5" cy="0.5" r="0.5">
            <stop offset="0" stop-color="#4287ff" stop-opacity="0.6"/>
            <stop offset="1" stop-color="#4287ff" stop-opacity="0"/>
        </radialGradient>
        
        <radialGradient id="surface-detail2" cx="0.5" cy="0.5" r="0.5">
            <stop offset="0" stop-color="#64f3d5" stop-opacity="0.5"/>
            <stop offset="1" stop-color="#64f3d5" stop-opacity="0"/>
        </radialGradient>
        
        <radialGradient id="glow-spot" cx="0.5" cy="0.5" r="0.5">
            <stop offset="0" stop-color="#64f3d5" stop-opacity="0.7"/>
            <stop offset="1" stop-color="#64f3d5" stop-opacity="0"/>
        </radialGradient>
        
        <radialGradient id="glow-spot2" cx="0.5" cy="0.5" r="0.5">
            <stop offset="0" stop-color="#4287ff" stop-opacity="0.6"/>
            <stop offset="1" stop-color="#4287ff" stop-opacity="0"/>
        </radialGradient>
        
        <linearGradient id="ray-gradient" x1="0%" y1="0%" x2="100%" y2="0%">
            <stop offset="0%" stop-color="rgba(100, 243, 213, 0)" />
            <stop offset="50%" stop-color="rgba(100, 243, 213, 0.8)" />
            <stop offset="100%" stop-color="rgba(100, 243, 213, 0)" />
        </linearGradient>
        
        <linearGradient id="ray-gradient2" x1="0%" y1="0%" x2="100%" y2="0%">
            <stop offset="0%" stop-color="rgba(66, 135, 255, 0)" />
            <stop offset="50%" stop-color="rgba(66, 135, 255, 0.8)" />
            <stop offset="100%" stop-color="rgba(66, 135, 255, 0)" />
        </linearGradient>
        
        <linearGradient id="star-trail" x1="0" y1="0" x2="0" y2="1">
            <stop offset="0" stop-color="white" stop-opacity="0.8" />
            <stop offset="1" stop-color="white" stop-opacity="0" />
        </linearGradient>
    </defs>
</svg> 